<svg id="Layer_1" data-name="Layer 1" xmlns="http://www.w3.org/2000/svg" viewBox="0 0 122.88 122.88"><defs><style>.cls-1{fill:#fd5;}.cls-2{fill:#262626;fill-rule:evenodd;}</style></defs><title>number-five</title><path class="cls-1" d="M61.44,0A61.46,61.46,0,1,1,18,18,61.21,61.21,0,0,1,61.44,0Zm0,7.78A53.66,53.66,0,1,1,7.78,61.44,53.65,53.65,0,0,1,61.44,7.78Z"/><path class="cls-2" d="M61.44,7.78A53.66,53.66,0,1,1,7.78,61.44,53.65,53.65,0,0,1,61.44,7.78Z"/><path class="cls-1" d="M61.61,83.72A20.93,20.93,0,0,1,52.86,82a14.7,14.7,0,0,1-6-4.81,12.06,12.06,0,0,1-2.22-7.08H55.92a4.47,4.47,0,0,0,1.73,3.54,6.18,6.18,0,0,0,4,1.32,6.3,6.3,0,0,0,3.14-.77A5.46,5.46,0,0,0,66.88,72a7.46,7.46,0,0,0,0-6.52,5.46,5.46,0,0,0-2.13-2.16,6.3,6.3,0,0,0-3.14-.77,6.77,6.77,0,0,0-3.39.9,5.39,5.39,0,0,0-2.3,2.45l-10.19-2L47.4,40.33H76.16v9.28H56.93l-.84,9.44h.26a7.71,7.71,0,0,1,3.47-3.22,12.12,12.12,0,0,1,5.72-1.29,13.19,13.19,0,0,1,6.82,1.78,12.93,12.93,0,0,1,4.75,4.9A14.85,14.85,0,0,1,70.7,81.76a20,20,0,0,1-9.09,2Z"/></svg>